M48
;Layer_Color=9474304
;FILE_FORMAT=4:2
METRIC,LZ
;TYPE=PLATED
T1F00S00C0.50
T2F00S00C0.90
T3F00S00C1.00
%
T01
X00015Y00021
X00049Y0002
Y00076
X00017Y00077
X00037Y00167
X00127Y00169
X00123Y00149
X000945Y00131
X00105Y00108
X001315Y00099
X001525
Y00077
X001315
X00095Y00081
X00083Y00094
X00122Y00028
X00154Y00013
X00178Y00046
X00202Y00072
X00224Y00073
X00242
X00262
X00253Y00033
X00226Y00032
X002075Y00109
X00185Y00116
Y00139
X00163Y00156
X00202Y00171
X00256Y00218
Y00244
X0009Y00243
X00343Y00091
T02
X000476Y00219
X00073
X001056
X00131
X001646
X0019
X00328Y0023
Y00165
X00293Y000914
Y00066
Y000406
T03
X00142Y00088
M30
