G04 Layer_Color=11599871*
%FSLAX42Y42*%
%MOMM*%
G71*
G01*
G75*
%ADD28C,0.25*%
D28*
X3015Y1644D02*
X2968D01*
X2991D01*
Y1504D01*
X3015D01*
X2968D01*
X2898Y1644D02*
Y1504D01*
X2805D01*
X2758Y1644D02*
X2711D01*
X2735D01*
Y1504D01*
X2758D01*
X2711D01*
X2641D02*
Y1598D01*
X2595Y1644D01*
X2548Y1598D01*
Y1504D01*
Y1574D01*
X2641D01*
X2408Y1621D02*
X2431Y1644D01*
X2478D01*
X2501Y1621D01*
Y1598D01*
X2478Y1574D01*
X2431D01*
X2408Y1551D01*
Y1528D01*
X2431Y1504D01*
X2478D01*
X2501Y1528D01*
X2361Y1504D02*
Y1598D01*
X2315Y1644D01*
X2268Y1598D01*
Y1504D01*
Y1574D01*
X2361D01*
X2222Y1504D02*
Y1644D01*
X2175Y1598D01*
X2128Y1644D01*
Y1504D01*
X3015Y1392D02*
X2991Y1415D01*
X2945D01*
X2921Y1392D01*
Y1299D01*
X2945Y1275D01*
X2991D01*
X3015Y1299D01*
Y1392D01*
X2875D02*
X2851Y1415D01*
X2805D01*
X2781Y1392D01*
Y1369D01*
X2805Y1345D01*
X2781Y1322D01*
Y1299D01*
X2805Y1275D01*
X2851D01*
X2875Y1299D01*
Y1322D01*
X2851Y1345D01*
X2875Y1369D01*
Y1392D01*
X2851Y1345D02*
X2805D01*
X2735Y1275D02*
X2641Y1369D01*
X2501Y1275D02*
X2595D01*
X2501Y1369D01*
Y1392D01*
X2525Y1415D01*
X2571D01*
X2595Y1392D01*
X2455D02*
X2431Y1415D01*
X2385D01*
X2361Y1392D01*
Y1299D01*
X2385Y1275D01*
X2431D01*
X2455Y1299D01*
Y1392D01*
X2222Y1275D02*
X2315D01*
X2222Y1369D01*
Y1392D01*
X2245Y1415D01*
X2292D01*
X2315Y1392D01*
X2175D02*
X2152Y1415D01*
X2105D01*
X2082Y1392D01*
Y1369D01*
X2105Y1345D01*
X2128D01*
X2105D01*
X2082Y1322D01*
Y1299D01*
X2105Y1275D01*
X2152D01*
X2175Y1299D01*
M02*
