G04 Layer_Physical_Order=1*
G04 Layer_Color=255*
%FSLAX42Y42*%
%MOMM*%
G71*
G01*
G75*
G04:AMPARAMS|DCode=10|XSize=1mm|YSize=0.9mm|CornerRadius=0.11mm|HoleSize=0mm|Usage=FLASHONLY|Rotation=0.000|XOffset=0mm|YOffset=0mm|HoleType=Round|Shape=RoundedRectangle|*
%AMROUNDEDRECTD10*
21,1,1.00,0.68,0,0,0.0*
21,1,0.78,0.90,0,0,0.0*
1,1,0.23,0.39,-0.34*
1,1,0.23,-0.39,-0.34*
1,1,0.23,-0.39,0.34*
1,1,0.23,0.39,0.34*
%
%ADD10ROUNDEDRECTD10*%
G04:AMPARAMS|DCode=11|XSize=0.8mm|YSize=0.8mm|CornerRadius=0.1mm|HoleSize=0mm|Usage=FLASHONLY|Rotation=270.000|XOffset=0mm|YOffset=0mm|HoleType=Round|Shape=RoundedRectangle|*
%AMROUNDEDRECTD11*
21,1,0.80,0.60,0,0,270.0*
21,1,0.60,0.80,0,0,270.0*
1,1,0.20,-0.30,-0.30*
1,1,0.20,-0.30,0.30*
1,1,0.20,0.30,0.30*
1,1,0.20,0.30,-0.30*
%
%ADD11ROUNDEDRECTD11*%
G04:AMPARAMS|DCode=12|XSize=2mm|YSize=5mm|CornerRadius=0.25mm|HoleSize=0mm|Usage=FLASHONLY|Rotation=270.000|XOffset=0mm|YOffset=0mm|HoleType=Round|Shape=RoundedRectangle|*
%AMROUNDEDRECTD12*
21,1,2.00,4.50,0,0,270.0*
21,1,1.50,5.00,0,0,270.0*
1,1,0.50,-2.25,-0.75*
1,1,0.50,-2.25,0.75*
1,1,0.50,2.25,0.75*
1,1,0.50,2.25,-0.75*
%
%ADD12ROUNDEDRECTD12*%
%ADD13R,0.90X0.60*%
G04:AMPARAMS|DCode=14|XSize=1mm|YSize=0.9mm|CornerRadius=0.11mm|HoleSize=0mm|Usage=FLASHONLY|Rotation=90.000|XOffset=0mm|YOffset=0mm|HoleType=Round|Shape=RoundedRectangle|*
%AMROUNDEDRECTD14*
21,1,1.00,0.68,0,0,90.0*
21,1,0.78,0.90,0,0,90.0*
1,1,0.23,0.34,0.39*
1,1,0.23,0.34,-0.39*
1,1,0.23,-0.34,-0.39*
1,1,0.23,-0.34,0.39*
%
%ADD14ROUNDEDRECTD14*%
%ADD15R,1.30X1.10*%
%ADD16C,1.00*%
%ADD17R,3.35X3.35*%
%ADD18R,1.00X0.30*%
%ADD19R,0.30X1.00*%
%ADD20C,0.30*%
%ADD21C,0.50*%
%ADD22C,0.25*%
G04:AMPARAMS|DCode=23|XSize=2.4mm|YSize=5mm|CornerRadius=0.3mm|HoleSize=0mm|Usage=FLASHONLY|Rotation=270.000|XOffset=0mm|YOffset=0mm|HoleType=Round|Shape=RoundedRectangle|*
%AMROUNDEDRECTD23*
21,1,2.40,4.40,0,0,270.0*
21,1,1.80,5.00,0,0,270.0*
1,1,0.60,-2.20,-0.90*
1,1,0.60,-2.20,0.90*
1,1,0.60,2.20,0.90*
1,1,0.60,2.20,-0.90*
%
%ADD23ROUNDEDRECTD23*%
%ADD24R,1.50X1.50*%
%ADD25C,1.50*%
%ADD26R,1.50X1.50*%
G36*
X2294Y2356D02*
X2294Y2354D01*
X2292Y2345D01*
Y2285D01*
X2295Y2274D01*
X2300Y2266D01*
Y2194D01*
X2295Y2186D01*
X2292Y2175D01*
Y2143D01*
X2266D01*
X2260Y2155D01*
Y2235D01*
X2240Y2255D01*
X2140D01*
X2120Y2235D01*
Y2155D01*
X2124Y2151D01*
X2122Y2144D01*
Y2076D01*
X2125Y2065D01*
X2131Y2056D01*
X2140Y2050D01*
X2151Y2047D01*
X2229D01*
X2240Y2050D01*
X2249Y2056D01*
X2255Y2065D01*
X2258Y2076D01*
Y2077D01*
X2315D01*
X2327Y2080D01*
X2338Y2087D01*
X2339Y2087D01*
X2380D01*
X2391Y2090D01*
X2399Y2096D01*
X2405Y2104D01*
X2408Y2115D01*
Y2175D01*
X2405Y2186D01*
X2400Y2194D01*
Y2226D01*
X2413Y2230D01*
X2420Y2220D01*
X2460Y2180D01*
X2474Y2170D01*
X2490Y2167D01*
X2494D01*
X2495Y2163D01*
X2501Y2146D01*
X2512Y2132D01*
X2526Y2121D01*
X2543Y2115D01*
X2560Y2112D01*
X2577Y2115D01*
X2594Y2121D01*
X2608Y2132D01*
X2619Y2146D01*
X2625Y2163D01*
X2626Y2169D01*
X2627Y2172D01*
X2648D01*
Y2158D01*
X2766D01*
X2847Y2076D01*
Y1684D01*
X2751Y1588D01*
X2581D01*
X2575Y1600D01*
Y1680D01*
X2555Y1700D01*
X2555Y1713D01*
X2558Y1725D01*
Y1740D01*
X2555Y1752D01*
X2548Y1763D01*
X2458Y1853D01*
X2447Y1860D01*
X2435Y1863D01*
X2175D01*
X2163Y1860D01*
X2152Y1853D01*
X2109Y1810D01*
X2015D01*
X2015Y1563D01*
X1998D01*
Y1569D01*
X1995Y1580D01*
X1989Y1589D01*
X1980Y1595D01*
X1969Y1598D01*
X1901D01*
X1894Y1596D01*
X1890Y1600D01*
X1810D01*
X1806Y1596D01*
X1799Y1598D01*
X1731D01*
X1720Y1595D01*
X1711Y1589D01*
X1705Y1580D01*
X1702Y1569D01*
Y1494D01*
X1564Y1356D01*
X1553Y1360D01*
Y2076D01*
X1574Y2098D01*
X1738D01*
Y2282D01*
X1554D01*
Y2168D01*
X1547Y2163D01*
X1497Y2113D01*
X1490Y2102D01*
X1487Y2090D01*
Y1990D01*
X1476Y1986D01*
X1362Y2099D01*
X1364Y2115D01*
X1376Y2124D01*
X1390Y2144D01*
X1400Y2166D01*
X1403Y2190D01*
X1400Y2214D01*
X1390Y2236D01*
X1376Y2256D01*
X1356Y2270D01*
X1334Y2280D01*
X1310Y2283D01*
X1286Y2280D01*
X1264Y2270D01*
X1244Y2256D01*
X1230Y2236D01*
X1220Y2214D01*
X1217Y2190D01*
X1220Y2166D01*
X1230Y2144D01*
X1244Y2124D01*
X1264Y2110D01*
X1273Y2106D01*
X1275Y2098D01*
X1282Y2087D01*
X1432Y1937D01*
X1431Y1933D01*
X1418Y1928D01*
X1148Y2198D01*
Y2282D01*
X964D01*
Y2098D01*
X1148D01*
X1148Y2098D01*
Y2098D01*
X1160Y2094D01*
X1387Y1866D01*
Y1579D01*
X1376Y1574D01*
X1370Y1580D01*
X1357D01*
X1350Y1593D01*
X1353Y1605D01*
X1350Y1617D01*
X1343Y1628D01*
X1203Y1768D01*
X1192Y1775D01*
X1180Y1778D01*
X1170D01*
X1158Y1775D01*
X1147Y1768D01*
X1140Y1757D01*
X1137Y1745D01*
X1140Y1733D01*
X1133Y1720D01*
X1120D01*
X1100Y1700D01*
Y1620D01*
X1104Y1616D01*
X1102Y1609D01*
Y1552D01*
X1090Y1546D01*
X778Y1859D01*
Y2111D01*
X796Y2124D01*
X810Y2144D01*
X820Y2166D01*
X823Y2190D01*
X820Y2214D01*
X810Y2236D01*
X796Y2256D01*
X776Y2270D01*
X754Y2280D01*
X730Y2283D01*
X706Y2280D01*
X684Y2270D01*
X664Y2256D01*
X650Y2236D01*
X640Y2214D01*
X637Y2190D01*
X640Y2166D01*
X650Y2144D01*
X664Y2124D01*
X684Y2110D01*
X706Y2100D01*
X712Y2100D01*
Y1862D01*
X700Y1856D01*
X523Y2034D01*
Y2098D01*
X568D01*
Y2282D01*
X384D01*
Y2098D01*
X457D01*
Y2020D01*
X460Y2008D01*
X467Y1997D01*
X1237Y1226D01*
Y1115D01*
X1238Y1112D01*
Y1062D01*
X1128D01*
X1117Y1074D01*
X1118Y1080D01*
X1115Y1097D01*
X1109Y1114D01*
X1098Y1128D01*
X1085Y1138D01*
Y1205D01*
X1065Y1225D01*
X1052D01*
X1045Y1238D01*
X1048Y1250D01*
X1045Y1262D01*
X1038Y1273D01*
X1027Y1280D01*
X1015Y1283D01*
X875D01*
X863Y1280D01*
X852Y1273D01*
X845Y1262D01*
X842Y1250D01*
X845Y1238D01*
X838Y1225D01*
X825D01*
X805Y1205D01*
Y1125D01*
X809Y1121D01*
X807Y1114D01*
Y1046D01*
X810Y1035D01*
X816Y1026D01*
X825Y1020D01*
X825Y1019D01*
X824Y1007D01*
X813Y1005D01*
X796Y999D01*
X782Y988D01*
X771Y974D01*
X771Y973D01*
X614D01*
X513Y1073D01*
X502Y1080D01*
X490Y1083D01*
X450D01*
X450Y1083D01*
X423D01*
Y1089D01*
X420Y1100D01*
X414Y1109D01*
X405Y1115D01*
X394Y1118D01*
X393D01*
Y1292D01*
X399D01*
X410Y1295D01*
X419Y1301D01*
X425Y1310D01*
X428Y1321D01*
Y1399D01*
X425Y1410D01*
X419Y1419D01*
X410Y1425D01*
X399Y1428D01*
X331D01*
X324Y1426D01*
X320Y1430D01*
X240D01*
X228Y1436D01*
Y1481D01*
X351Y1605D01*
X353Y1605D01*
X370Y1602D01*
X387Y1605D01*
X404Y1611D01*
X418Y1622D01*
X429Y1636D01*
X435Y1653D01*
X438Y1670D01*
X435Y1687D01*
X429Y1704D01*
X418Y1718D01*
X404Y1729D01*
X387Y1735D01*
X370Y1738D01*
X364Y1737D01*
X313Y1788D01*
Y2282D01*
X398Y2367D01*
X877D01*
X883Y2365D01*
X900Y2362D01*
X917Y2365D01*
X923Y2367D01*
X2287D01*
X2294Y2356D01*
D02*
G37*
G36*
X3500Y50D02*
X50D01*
Y411D01*
X63Y412D01*
X65Y399D01*
X75Y385D01*
X89Y375D01*
X105Y372D01*
X555D01*
X571Y375D01*
X585Y385D01*
X595Y399D01*
X598Y415D01*
Y457D01*
X873D01*
X875Y450D01*
X879Y443D01*
X880Y437D01*
X877Y428D01*
X871Y424D01*
X865Y415D01*
X862Y404D01*
Y336D01*
X865Y325D01*
X870Y317D01*
Y253D01*
X865Y245D01*
X862Y234D01*
Y166D01*
X865Y155D01*
X871Y146D01*
X880Y140D01*
X891Y137D01*
X969D01*
X980Y140D01*
X989Y146D01*
X990Y147D01*
X1010D01*
X1011Y146D01*
X1020Y140D01*
X1031Y137D01*
X1109D01*
X1120Y140D01*
X1129Y146D01*
X1130Y147D01*
X1357D01*
X1370Y150D01*
X1381Y157D01*
X1436Y212D01*
X1491D01*
X1502Y215D01*
X1512Y221D01*
X1517Y229D01*
X1524Y230D01*
X1531Y229D01*
X1536Y221D01*
X1545Y215D01*
X1556Y212D01*
X1624D01*
X1631Y214D01*
X1635Y210D01*
X1715D01*
X1735Y230D01*
Y330D01*
X1715Y350D01*
X1703D01*
X1698Y362D01*
X1741Y405D01*
X1746Y401D01*
X1763Y395D01*
X1780Y392D01*
X1797Y395D01*
X1806Y398D01*
X1810Y397D01*
X2666D01*
X2857Y207D01*
X2868Y200D01*
X2880Y197D01*
X3250D01*
X3262Y200D01*
X3273Y207D01*
X3343Y277D01*
X3350Y288D01*
X3353Y300D01*
Y332D01*
X3354D01*
X3365Y335D01*
X3374Y341D01*
X3380Y350D01*
X3383Y361D01*
Y439D01*
X3380Y450D01*
X3374Y459D01*
X3365Y465D01*
X3354Y468D01*
X3286D01*
X3279Y466D01*
X3275Y470D01*
X3195D01*
X3191Y466D01*
X3184Y468D01*
X3116D01*
X3105Y465D01*
X3096Y459D01*
X3090Y450D01*
X3087Y439D01*
Y439D01*
X3022D01*
Y498D01*
X2884D01*
X2869Y513D01*
X2858Y520D01*
X2846Y523D01*
X2845D01*
X2841Y535D01*
X2843Y537D01*
X2885Y579D01*
X2906Y570D01*
X2930Y567D01*
X2954Y570D01*
X2976Y580D01*
X2996Y594D01*
X3010Y614D01*
X3020Y636D01*
X3023Y660D01*
X3020Y684D01*
X3014Y698D01*
X3097Y780D01*
X3105Y775D01*
X3116Y772D01*
X3184D01*
X3191Y774D01*
X3195Y770D01*
X3275D01*
X3295Y790D01*
Y890D01*
X3275Y910D01*
X3295Y930D01*
Y1030D01*
X3275Y1050D01*
X3195D01*
X3191Y1046D01*
X3184Y1048D01*
X3116D01*
X3105Y1045D01*
X3096Y1039D01*
X3090Y1030D01*
X3087Y1019D01*
Y1013D01*
X2996D01*
X2984Y1010D01*
X2973Y1003D01*
X2968Y998D01*
X2954Y1004D01*
X2930Y1007D01*
X2906Y1004D01*
X2884Y994D01*
X2864Y980D01*
X2850Y960D01*
X2840Y938D01*
X2837Y914D01*
X2840Y890D01*
X2850Y868D01*
X2864Y848D01*
X2873Y842D01*
X2873Y829D01*
X2696Y653D01*
X2065D01*
X2061Y665D01*
X2063Y667D01*
X2065Y670D01*
X2068Y672D01*
X2079Y686D01*
X2085Y703D01*
X2088Y720D01*
X2085Y737D01*
X2079Y754D01*
X2068Y768D01*
X2067Y772D01*
X2075Y780D01*
Y880D01*
X2069Y886D01*
X2074Y897D01*
X2260D01*
X2260Y897D01*
X2274D01*
X2285Y900D01*
X2294Y906D01*
X2300Y915D01*
X2303Y926D01*
Y994D01*
X2301Y1001D01*
X2305Y1005D01*
Y1085D01*
X2301Y1089D01*
X2303Y1096D01*
Y1164D01*
X2300Y1175D01*
X2294Y1184D01*
X2285Y1190D01*
X2274Y1193D01*
X2268D01*
Y1212D01*
X2269D01*
X2280Y1215D01*
X2289Y1221D01*
X2295Y1230D01*
X2298Y1241D01*
Y1319D01*
X2295Y1330D01*
X2289Y1339D01*
X2280Y1345D01*
X2269Y1348D01*
X2201D01*
X2194Y1346D01*
X2190Y1350D01*
X2110D01*
X2090Y1330D01*
Y1319D01*
X2077Y1314D01*
X1998Y1393D01*
X1987Y1400D01*
X1975Y1403D01*
X1785D01*
X1773Y1400D01*
X1762Y1393D01*
X1755Y1382D01*
X1752Y1370D01*
X1755Y1358D01*
X1748Y1345D01*
X1735D01*
X1715Y1325D01*
Y1245D01*
X1719Y1241D01*
X1717Y1234D01*
Y1166D01*
X1720Y1155D01*
X1726Y1146D01*
X1735Y1140D01*
X1746Y1137D01*
X1772D01*
Y1063D01*
X1655D01*
X1652Y1062D01*
X1602D01*
Y1112D01*
X1603Y1115D01*
Y1301D01*
X1764Y1462D01*
X1799D01*
X1806Y1464D01*
X1810Y1460D01*
X1890D01*
X1894Y1464D01*
X1901Y1462D01*
X1969D01*
X1980Y1465D01*
X1989Y1471D01*
X1995Y1480D01*
X1997Y1488D01*
X2004Y1492D01*
X2006Y1491D01*
X2015Y1482D01*
X2015Y1450D01*
X2425Y1450D01*
Y1519D01*
X2438Y1520D01*
X2440Y1510D01*
X2446Y1501D01*
X2455Y1495D01*
X2466Y1492D01*
X2544D01*
X2555Y1495D01*
X2564Y1501D01*
X2570Y1510D01*
X2573Y1521D01*
Y1522D01*
X2765D01*
X2777Y1525D01*
X2788Y1532D01*
X2903Y1647D01*
X2910Y1658D01*
X2913Y1670D01*
Y2090D01*
X2910Y2102D01*
X2903Y2113D01*
X2788Y2228D01*
X2777Y2235D01*
X2772Y2236D01*
Y2252D01*
X2648D01*
Y2238D01*
X2628D01*
Y2244D01*
X2626Y2251D01*
X2630Y2255D01*
Y2335D01*
X2615Y2350D01*
X2621Y2362D01*
X2710D01*
X2722Y2365D01*
X2733Y2372D01*
X2740Y2383D01*
X2743Y2395D01*
X2740Y2407D01*
X2733Y2418D01*
X2722Y2425D01*
X2710Y2428D01*
X2575D01*
X2563Y2425D01*
X2552Y2418D01*
X2545Y2407D01*
X2542Y2395D01*
X2545Y2383D01*
X2552Y2372D01*
X2558Y2368D01*
X2554Y2355D01*
X2510D01*
X2505Y2350D01*
X2493Y2354D01*
Y2380D01*
X2490Y2396D01*
X2480Y2410D01*
X2450Y2440D01*
X2436Y2450D01*
X2420Y2453D01*
X963D01*
X959Y2464D01*
X948Y2478D01*
X934Y2489D01*
X917Y2495D01*
X900Y2498D01*
X883Y2495D01*
X866Y2489D01*
X852Y2478D01*
X841Y2464D01*
X837Y2453D01*
X380D01*
X364Y2450D01*
X350Y2440D01*
X240Y2330D01*
X230Y2316D01*
X227Y2300D01*
Y1770D01*
X230Y1754D01*
X240Y1740D01*
X303Y1676D01*
X302Y1670D01*
X305Y1653D01*
X305Y1651D01*
X172Y1518D01*
X165Y1507D01*
X162Y1495D01*
Y1428D01*
X161D01*
X150Y1425D01*
X141Y1419D01*
X135Y1410D01*
X132Y1399D01*
Y1321D01*
X135Y1310D01*
X141Y1301D01*
X150Y1295D01*
X161Y1292D01*
X229D01*
X236Y1294D01*
X240Y1290D01*
X320D01*
X327Y1280D01*
Y1126D01*
X315Y1120D01*
X235D01*
X215Y1100D01*
Y1000D01*
X235Y980D01*
X315D01*
X319Y984D01*
X326Y982D01*
X394D01*
X405Y985D01*
X414Y991D01*
X420Y1000D01*
X423Y1011D01*
Y1017D01*
X450D01*
X450Y1017D01*
X476D01*
X577Y917D01*
X588Y910D01*
X600Y907D01*
X771D01*
X771Y906D01*
X782Y892D01*
X796Y881D01*
X813Y875D01*
X822Y873D01*
X826Y868D01*
X829Y860D01*
X827Y850D01*
Y745D01*
X830Y733D01*
X837Y722D01*
X872Y686D01*
Y631D01*
X874Y624D01*
X870Y620D01*
Y540D01*
X874Y536D01*
X872Y529D01*
Y523D01*
X598D01*
Y565D01*
X595Y581D01*
X585Y595D01*
X571Y605D01*
X555Y608D01*
X105D01*
X89Y605D01*
X75Y595D01*
X65Y581D01*
X63Y568D01*
X50Y569D01*
Y2550D01*
X3500D01*
Y50D01*
D02*
G37*
%LPC*%
G36*
X3372Y2392D02*
X3188D01*
Y2333D01*
X3052D01*
Y2347D01*
X2928D01*
Y2253D01*
X2991D01*
X2997Y2246D01*
Y2168D01*
X2991D01*
X2980Y2165D01*
X2971Y2159D01*
X2965Y2150D01*
X2962Y2139D01*
Y2071D01*
X2964Y2064D01*
X2960Y2060D01*
Y1980D01*
X2980Y1960D01*
X3080D01*
X3100Y1980D01*
Y2060D01*
X3096Y2064D01*
X3098Y2071D01*
Y2139D01*
X3095Y2150D01*
X3089Y2159D01*
X3080Y2165D01*
X3069Y2168D01*
X3063D01*
Y2260D01*
X3069Y2267D01*
X3188D01*
Y2208D01*
X3372D01*
Y2392D01*
D02*
G37*
%LPD*%
D10*
X2190Y2280D02*
D03*
Y2110D02*
D03*
X3030Y1935D02*
D03*
Y2105D02*
D03*
X2560Y2380D02*
D03*
Y2210D02*
D03*
X875Y1250D02*
D03*
Y1080D02*
D03*
X1015Y1250D02*
D03*
Y1080D02*
D03*
X1925Y1370D02*
D03*
Y1200D02*
D03*
X1785Y1370D02*
D03*
Y1200D02*
D03*
X2505Y1725D02*
D03*
Y1555D02*
D03*
X2235Y1130D02*
D03*
Y960D02*
D03*
X940Y495D02*
D03*
Y665D02*
D03*
X1320Y1435D02*
D03*
X1320Y1605D02*
D03*
X1170Y1575D02*
D03*
X1170Y1745D02*
D03*
X930Y200D02*
D03*
Y370D02*
D03*
X1070Y200D02*
D03*
Y370D02*
D03*
D11*
X2350Y2145D02*
D03*
Y2315D02*
D03*
D12*
X330Y490D02*
D03*
D13*
X2710Y2395D02*
D03*
Y2205D02*
D03*
X2990Y2300D02*
D03*
D14*
X2100Y830D02*
D03*
X1930D02*
D03*
X2065Y1280D02*
D03*
X2235D02*
D03*
X2085Y1020D02*
D03*
X1915D02*
D03*
X1935Y1530D02*
D03*
X1765D02*
D03*
X1330Y440D02*
D03*
X1500D02*
D03*
X190Y1050D02*
D03*
X360D02*
D03*
X365Y1360D02*
D03*
X195D02*
D03*
X1457Y280D02*
D03*
X1287D02*
D03*
X1590Y280D02*
D03*
X1760D02*
D03*
X3320Y980D02*
D03*
X3150D02*
D03*
X3320Y840D02*
D03*
X3150D02*
D03*
Y400D02*
D03*
X3320D02*
D03*
D15*
X2335Y1550D02*
D03*
X2105Y1540D02*
D03*
Y1710D02*
D03*
X2335D02*
D03*
D16*
X1650Y510D02*
D03*
X900Y2430D02*
D03*
X150Y210D02*
D03*
X490Y200D02*
D03*
X170Y770D02*
D03*
X490Y760D02*
D03*
X2560Y2180D02*
D03*
Y2440D02*
D03*
X1270Y1690D02*
D03*
X1850Y1390D02*
D03*
Y1160D02*
D03*
X1780Y460D02*
D03*
X2020Y720D02*
D03*
X1525Y990D02*
D03*
Y770D02*
D03*
X1315D02*
D03*
Y990D02*
D03*
X945Y1310D02*
D03*
X2020Y1710D02*
D03*
X2075Y1090D02*
D03*
X950Y810D02*
D03*
X1220Y280D02*
D03*
X1230Y1490D02*
D03*
X830Y940D02*
D03*
X1050Y1080D02*
D03*
X370Y1670D02*
D03*
X1630Y1560D02*
D03*
X2240Y730D02*
D03*
X2420D02*
D03*
X2620D02*
D03*
X2530Y330D02*
D03*
X3430Y910D02*
D03*
X1540Y130D02*
D03*
X2260Y320D02*
D03*
D17*
X1420Y880D02*
D03*
D18*
X1185Y730D02*
D03*
Y780D02*
D03*
Y830D02*
D03*
Y880D02*
D03*
Y930D02*
D03*
Y980D02*
D03*
Y1030D02*
D03*
X1655D02*
D03*
Y980D02*
D03*
Y930D02*
D03*
Y880D02*
D03*
Y830D02*
D03*
Y780D02*
D03*
Y730D02*
D03*
D19*
X1270Y1115D02*
D03*
X1320D02*
D03*
X1370D02*
D03*
X1420D02*
D03*
X1470D02*
D03*
X1520D02*
D03*
X1570D02*
D03*
Y645D02*
D03*
X1520D02*
D03*
X1470D02*
D03*
X1420D02*
D03*
X1370D02*
D03*
X1320D02*
D03*
X1270D02*
D03*
D20*
X2880Y1670D02*
Y2090D01*
X2765Y2205D02*
X2880Y2090D01*
X2710Y2205D02*
X2765D01*
X2765Y1555D02*
X2880Y1670D01*
X2315Y2110D02*
X2350Y2145D01*
X2190Y2110D02*
X2315D01*
X2340Y2410D02*
X2350Y2400D01*
Y2315D02*
Y2400D01*
X1170Y1575D02*
X1310Y1435D01*
X2505Y1555D02*
X2765D01*
X2930Y840D02*
Y890D01*
X2710Y620D02*
X2930Y840D01*
X1980Y620D02*
X2710D01*
X1420Y1115D02*
Y1880D01*
X1121Y2179D02*
X1420Y1880D01*
X1051Y2179D02*
X1121D01*
X1470Y1115D02*
Y1945D01*
X1305Y2110D02*
X1470Y1945D01*
X1570Y2140D02*
X1600D01*
X1520Y2090D02*
X1570Y2140D01*
X1520Y1115D02*
Y2090D01*
X2360Y1555D02*
X2535D01*
X2930Y660D02*
X2930D01*
X2846Y490D02*
X2930Y406D01*
X1950Y490D02*
X2846D01*
X1710Y730D02*
X1950Y490D01*
X2820Y560D02*
X2925Y665D01*
X1960Y560D02*
X2820D01*
X1740Y780D02*
X1960Y560D01*
X2930Y914D02*
Y960D01*
X2565Y2205D02*
X2710D01*
X2575Y2395D02*
X2710D01*
X2990Y2300D02*
X3030Y2260D01*
Y2105D02*
Y2260D01*
X2990Y2300D02*
X3280D01*
X1820Y880D02*
X1870Y830D01*
X1655Y880D02*
X1820D01*
X1655Y830D02*
X1770D01*
X1655Y780D02*
X1740D01*
X1655Y730D02*
X1710D01*
X875Y1250D02*
X1015D01*
X1015Y980D02*
Y1080D01*
Y980D02*
Y980D01*
X1185D01*
X2175Y1830D02*
X2435D01*
X2105Y1760D02*
X2175Y1830D01*
X2105Y1710D02*
Y1760D01*
X2435Y1830D02*
X2525Y1740D01*
Y1725D02*
Y1740D01*
X2095Y1530D02*
X2105Y1540D01*
X1570Y1115D02*
Y1315D01*
X1925Y1370D02*
X1975D01*
X1785D02*
X1925D01*
X1975D02*
X2065Y1280D01*
X2235Y1130D02*
Y1280D01*
X1835Y930D02*
X2260D01*
X1835D02*
X1925Y1020D01*
X1655Y930D02*
X1835D01*
X1805Y980D02*
Y1180D01*
X1655Y980D02*
X1805D01*
X1655Y1030D02*
X1805D01*
X970Y830D02*
X1185D01*
X860Y745D02*
X940Y665D01*
X965Y685D02*
X1060Y780D01*
X1185D01*
X1935Y1530D02*
X2095D01*
X1570Y1315D02*
X1765Y1510D01*
Y1520D01*
X490Y2020D02*
Y2160D01*
Y2020D02*
X1270Y1240D01*
Y1115D02*
Y1240D01*
X1320Y1115D02*
Y1270D01*
X1367Y1118D02*
X1370Y1115D01*
X1320Y1370D02*
Y1435D01*
Y1370D02*
X1367Y1323D01*
Y1118D02*
Y1323D01*
X1310Y1435D02*
X1320D01*
X1470Y435D02*
Y645D01*
Y435D02*
X1495Y410D01*
X1320Y430D02*
Y645D01*
X1520Y570D02*
Y645D01*
Y570D02*
X1580Y510D01*
X1620D01*
X1180Y1745D02*
X1320Y1605D01*
X1170Y1745D02*
X1180D01*
X360Y1050D02*
X390D01*
X450D01*
X875Y1080D02*
X1015D01*
X1015Y1080D01*
X1015Y980D02*
X1065Y930D01*
X1185D01*
X1010Y900D02*
X1030Y880D01*
X1185D01*
X360Y1050D02*
Y1355D01*
X360Y1020D02*
X390Y1050D01*
X450Y1050D02*
X490D01*
X860Y745D02*
Y850D01*
X910Y900D01*
X1010D01*
X600Y940D02*
X830D01*
X490Y1050D02*
X600Y940D01*
X1570Y645D02*
X1695D01*
X2996Y980D02*
X3150D01*
X2930Y914D02*
X2996Y980D01*
X2930Y660D02*
X3130Y860D01*
X2930Y406D02*
X3175D01*
X340Y490D02*
X935D01*
X1457Y280D02*
X1570D01*
X930Y370D02*
Y485D01*
Y200D02*
X950Y180D01*
X1357D01*
X1457Y280D01*
X1070Y370D02*
X1130D01*
X1220Y280D01*
X195Y1360D02*
Y1495D01*
X370Y1670D01*
X1870Y830D02*
X1930D01*
X1960D01*
Y770D02*
Y830D01*
X1805Y1180D02*
X1905D01*
X1770Y830D02*
X1980Y620D01*
X1960Y770D02*
X2040Y690D01*
X3320Y400D02*
Y420D01*
Y300D02*
Y400D01*
X3250Y230D02*
X3320Y300D01*
X2880Y230D02*
X3250D01*
X1570Y280D02*
X1760Y470D01*
Y580D01*
X1695Y645D02*
X1760Y580D01*
X745Y1845D02*
X1320Y1270D01*
X745Y1845D02*
Y2190D01*
X1780Y460D02*
X1810Y430D01*
X2680D01*
X2880Y230D01*
D21*
X2340Y2410D02*
X2420D01*
X380D02*
X2340D01*
X2420D02*
X2450Y2380D01*
Y2250D02*
Y2380D01*
Y2250D02*
X2490Y2210D01*
X2560D01*
X270Y1770D02*
X370Y1670D01*
X270Y1770D02*
Y2300D01*
X380Y2410D01*
X2560Y2190D02*
Y2210D01*
D22*
X1420Y360D02*
Y645D01*
Y360D02*
X1460Y320D01*
D23*
X330Y210D02*
D03*
Y770D02*
D03*
D24*
X1646Y2190D02*
D03*
X1056D02*
D03*
X476D02*
D03*
D25*
X1900D02*
D03*
X1310D02*
D03*
X730D02*
D03*
X2930Y914D02*
D03*
Y660D02*
D03*
X1420Y880D02*
D03*
D26*
X3280Y2300D02*
D03*
Y1650D02*
D03*
X2930Y406D02*
D03*
M02*
