G04 Layer_Color=16711935*
%FSLAX42Y42*%
%MOMM*%
G71*
G01*
G75*
%ADD37C,1.20*%
G04:AMPARAMS|DCode=41|XSize=2.6mm|YSize=5.2mm|CornerRadius=0.4mm|HoleSize=0mm|Usage=FLASHONLY|Rotation=270.000|XOffset=0mm|YOffset=0mm|HoleType=Round|Shape=RoundedRectangle|*
%AMROUNDEDRECTD41*
21,1,2.60,4.40,0,0,270.0*
21,1,1.80,5.20,0,0,270.0*
1,1,0.80,-2.20,-0.90*
1,1,0.80,-2.20,0.90*
1,1,0.80,2.20,0.90*
1,1,0.80,2.20,-0.90*
%
%ADD41ROUNDEDRECTD41*%
%ADD42R,1.70X1.70*%
%ADD43C,1.70*%
%ADD44R,1.70X1.70*%
D37*
X900Y2430D02*
D03*
X150Y210D02*
D03*
X490Y200D02*
D03*
X170Y770D02*
D03*
X490Y760D02*
D03*
X2560Y2180D02*
D03*
Y2440D02*
D03*
X1270Y1690D02*
D03*
X1850Y1390D02*
D03*
Y1160D02*
D03*
X1780Y460D02*
D03*
X2020Y720D02*
D03*
X1525Y990D02*
D03*
Y770D02*
D03*
X1315D02*
D03*
Y990D02*
D03*
X945Y1310D02*
D03*
X2020Y1710D02*
D03*
X2075Y1090D02*
D03*
X950Y810D02*
D03*
X1220Y280D02*
D03*
X1230Y1490D02*
D03*
X830Y940D02*
D03*
X1050Y1080D02*
D03*
X370Y1670D02*
D03*
X1630Y1560D02*
D03*
X2240Y730D02*
D03*
X2420D02*
D03*
X2620D02*
D03*
X2530Y330D02*
D03*
X3430Y910D02*
D03*
X1540Y130D02*
D03*
X2260Y320D02*
D03*
D41*
X330Y210D02*
D03*
Y770D02*
D03*
D42*
X1646Y2190D02*
D03*
X1056D02*
D03*
X476D02*
D03*
D43*
X1900D02*
D03*
X1310D02*
D03*
X730D02*
D03*
X2930Y914D02*
D03*
Y660D02*
D03*
X1420Y880D02*
D03*
D44*
X3280Y2300D02*
D03*
Y1650D02*
D03*
X2930Y406D02*
D03*
M02*
