G04 Layer_Physical_Order=2*
G04 Layer_Color=16711680*
%FSLAX42Y42*%
%MOMM*%
G71*
G01*
G75*
%ADD16C,1.00*%
%ADD20C,0.30*%
%ADD21C,0.50*%
G04:AMPARAMS|DCode=23|XSize=2.4mm|YSize=5mm|CornerRadius=0.3mm|HoleSize=0mm|Usage=FLASHONLY|Rotation=270.000|XOffset=0mm|YOffset=0mm|HoleType=Round|Shape=RoundedRectangle|*
%AMROUNDEDRECTD23*
21,1,2.40,4.40,0,0,270.0*
21,1,1.80,5.00,0,0,270.0*
1,1,0.60,-2.20,-0.90*
1,1,0.60,-2.20,0.90*
1,1,0.60,2.20,0.90*
1,1,0.60,2.20,-0.90*
%
%ADD23ROUNDEDRECTD23*%
%ADD24R,1.50X1.50*%
%ADD25C,1.50*%
%ADD26R,1.50X1.50*%
G36*
X3500Y50D02*
X50D01*
Y2550D01*
X3500D01*
Y50D01*
D02*
G37*
%LPC*%
G36*
X3372Y2392D02*
X3188D01*
Y2208D01*
X3372D01*
Y2392D01*
D02*
G37*
G36*
X1738Y2282D02*
X1554D01*
Y2098D01*
X1738D01*
Y2282D01*
D02*
G37*
G36*
X1148D02*
X964D01*
Y2098D01*
X1148D01*
Y2282D01*
D02*
G37*
G36*
X568D02*
X384D01*
Y2098D01*
X568D01*
Y2282D01*
D02*
G37*
G36*
X1310Y2283D02*
X1286Y2280D01*
X1264Y2270D01*
X1244Y2256D01*
X1230Y2236D01*
X1220Y2214D01*
X1217Y2190D01*
X1220Y2166D01*
X1230Y2144D01*
X1244Y2124D01*
X1264Y2110D01*
X1286Y2100D01*
X1310Y2097D01*
X1334Y2100D01*
X1356Y2110D01*
X1376Y2124D01*
X1390Y2144D01*
X1400Y2166D01*
X1403Y2190D01*
X1400Y2214D01*
X1390Y2236D01*
X1376Y2256D01*
X1356Y2270D01*
X1334Y2280D01*
X1310Y2283D01*
D02*
G37*
G36*
X730D02*
X706Y2280D01*
X684Y2270D01*
X664Y2256D01*
X650Y2236D01*
X640Y2214D01*
X637Y2190D01*
X640Y2166D01*
X650Y2144D01*
X664Y2124D01*
X684Y2110D01*
X706Y2100D01*
X730Y2097D01*
X754Y2100D01*
X776Y2110D01*
X796Y2124D01*
X810Y2144D01*
X820Y2166D01*
X823Y2190D01*
X820Y2214D01*
X810Y2236D01*
X796Y2256D01*
X776Y2270D01*
X754Y2280D01*
X730Y2283D01*
D02*
G37*
G36*
X900Y2498D02*
X883Y2495D01*
X866Y2489D01*
X852Y2478D01*
X841Y2464D01*
X835Y2447D01*
X832Y2430D01*
X835Y2413D01*
X841Y2396D01*
X852Y2382D01*
X857Y2378D01*
Y1820D01*
X860Y1804D01*
X870Y1790D01*
X1163Y1496D01*
X1162Y1490D01*
X1165Y1473D01*
X1171Y1456D01*
X1182Y1442D01*
X1196Y1431D01*
X1213Y1425D01*
X1230Y1422D01*
X1247Y1425D01*
X1264Y1431D01*
X1278Y1442D01*
X1289Y1456D01*
X1295Y1473D01*
X1298Y1490D01*
X1295Y1507D01*
X1289Y1524D01*
X1278Y1538D01*
X1264Y1549D01*
X1247Y1555D01*
X1230Y1558D01*
X1224Y1557D01*
X943Y1838D01*
Y2378D01*
X948Y2382D01*
X959Y2396D01*
X965Y2413D01*
X968Y2430D01*
X965Y2447D01*
X959Y2464D01*
X948Y2478D01*
X934Y2489D01*
X917Y2495D01*
X900Y2498D01*
D02*
G37*
G36*
X2560Y2248D02*
X2543Y2245D01*
X2526Y2239D01*
X2512Y2228D01*
X2501Y2214D01*
X2495Y2197D01*
X2492Y2180D01*
X2495Y2163D01*
X2501Y2146D01*
X2512Y2132D01*
X2517Y2128D01*
Y1818D01*
X1911Y1212D01*
X1898Y1208D01*
X1884Y1219D01*
X1867Y1225D01*
X1850Y1228D01*
X1833Y1225D01*
X1816Y1219D01*
X1802Y1208D01*
X1791Y1194D01*
X1785Y1177D01*
X1782Y1160D01*
X1785Y1143D01*
X1791Y1126D01*
X1802Y1112D01*
X1816Y1101D01*
X1833Y1095D01*
X1850Y1092D01*
X1857Y1086D01*
Y720D01*
Y598D01*
X1786Y527D01*
X1780Y528D01*
X1763Y525D01*
X1746Y519D01*
X1732Y508D01*
X1721Y494D01*
X1715Y477D01*
X1712Y460D01*
X1715Y443D01*
X1721Y426D01*
X1732Y412D01*
X1746Y401D01*
X1763Y395D01*
X1780Y392D01*
X1797Y395D01*
X1814Y401D01*
X1828Y412D01*
X1839Y426D01*
X1845Y443D01*
X1848Y460D01*
X1847Y466D01*
X1930Y550D01*
X1940Y564D01*
X1943Y580D01*
Y677D01*
X1968D01*
X1972Y672D01*
X1986Y661D01*
X2003Y655D01*
X2020Y652D01*
X2037Y655D01*
X2054Y661D01*
X2068Y672D01*
X2079Y686D01*
X2085Y703D01*
X2088Y720D01*
X2085Y737D01*
X2079Y754D01*
X2068Y768D01*
X2054Y779D01*
X2037Y785D01*
X2020Y788D01*
X2003Y785D01*
X1986Y779D01*
X1972Y768D01*
X1968Y763D01*
X1943D01*
Y1122D01*
X1950Y1130D01*
X2590Y1770D01*
X2600Y1784D01*
X2603Y1800D01*
Y2128D01*
X2608Y2132D01*
X2619Y2146D01*
X2625Y2163D01*
X2628Y2180D01*
X2625Y2197D01*
X2619Y2214D01*
X2608Y2228D01*
X2594Y2239D01*
X2577Y2245D01*
X2560Y2248D01*
D02*
G37*
G36*
X370Y1738D02*
X353Y1735D01*
X336Y1729D01*
X322Y1718D01*
X311Y1704D01*
X305Y1687D01*
X302Y1670D01*
X305Y1653D01*
X311Y1636D01*
X322Y1622D01*
X336Y1611D01*
X353Y1605D01*
X370Y1602D01*
X387Y1605D01*
X404Y1611D01*
X418Y1622D01*
X429Y1636D01*
X429Y1637D01*
X446D01*
X985Y1099D01*
X985Y1097D01*
X982Y1080D01*
X985Y1063D01*
X991Y1046D01*
X1002Y1032D01*
X1016Y1021D01*
X1033Y1015D01*
X1050Y1012D01*
X1067Y1015D01*
X1084Y1021D01*
X1098Y1032D01*
X1109Y1046D01*
X1115Y1063D01*
X1118Y1080D01*
X1115Y1097D01*
X1109Y1114D01*
X1098Y1128D01*
X1084Y1139D01*
X1067Y1145D01*
X1050Y1148D01*
X1033Y1145D01*
X1031Y1145D01*
X483Y1693D01*
X472Y1700D01*
X460Y1703D01*
X429D01*
X429Y1704D01*
X418Y1718D01*
X404Y1729D01*
X387Y1735D01*
X370Y1738D01*
D02*
G37*
G36*
X2930Y1007D02*
X2906Y1004D01*
X2884Y994D01*
X2864Y980D01*
X2850Y960D01*
X2840Y938D01*
X2837Y914D01*
X2840Y890D01*
X2850Y868D01*
X2864Y848D01*
X2884Y834D01*
X2906Y824D01*
X2930Y821D01*
X2954Y824D01*
X2976Y834D01*
X2996Y848D01*
X3010Y868D01*
X3020Y890D01*
X3023Y914D01*
X3020Y938D01*
X3010Y960D01*
X2996Y980D01*
X2976Y994D01*
X2954Y1004D01*
X2930Y1007D01*
D02*
G37*
G36*
X830Y1008D02*
X813Y1005D01*
X796Y999D01*
X782Y988D01*
X771Y974D01*
X765Y957D01*
X762Y940D01*
X765Y923D01*
X771Y906D01*
X782Y892D01*
X796Y881D01*
X813Y875D01*
X830Y872D01*
X840Y874D01*
X885Y829D01*
X885Y827D01*
X882Y810D01*
X885Y793D01*
X891Y776D01*
X902Y762D01*
X916Y751D01*
X933Y745D01*
X950Y742D01*
X967Y745D01*
X984Y751D01*
X998Y762D01*
X1009Y776D01*
X1015Y793D01*
X1018Y810D01*
X1015Y827D01*
X1009Y844D01*
X998Y858D01*
X984Y869D01*
X967Y875D01*
X950Y878D01*
X933Y875D01*
X931Y875D01*
X892Y914D01*
X895Y923D01*
X898Y940D01*
X895Y957D01*
X889Y974D01*
X878Y988D01*
X864Y999D01*
X847Y1005D01*
X830Y1008D01*
D02*
G37*
G36*
X2930Y753D02*
X2906Y750D01*
X2884Y740D01*
X2864Y726D01*
X2850Y706D01*
X2840Y684D01*
X2837Y660D01*
X2840Y636D01*
X2850Y614D01*
X2864Y594D01*
X2884Y580D01*
X2906Y570D01*
X2930Y567D01*
X2954Y570D01*
X2976Y580D01*
X2996Y594D01*
X3010Y614D01*
X3020Y636D01*
X3023Y660D01*
X3020Y684D01*
X3010Y706D01*
X2996Y726D01*
X2976Y740D01*
X2954Y750D01*
X2930Y753D01*
D02*
G37*
G36*
X3022Y498D02*
X2838D01*
Y314D01*
X3022D01*
Y498D01*
D02*
G37*
%LPD*%
D16*
X900Y2430D02*
D03*
X150Y210D02*
D03*
X490Y200D02*
D03*
X170Y770D02*
D03*
X490Y760D02*
D03*
X2560Y2180D02*
D03*
Y2440D02*
D03*
X1270Y1690D02*
D03*
X1850Y1390D02*
D03*
Y1160D02*
D03*
X1780Y460D02*
D03*
X2020Y720D02*
D03*
X1525Y990D02*
D03*
Y770D02*
D03*
X1315D02*
D03*
Y990D02*
D03*
X945Y1310D02*
D03*
X2020Y1710D02*
D03*
X2075Y1090D02*
D03*
X950Y810D02*
D03*
X1220Y280D02*
D03*
X1230Y1490D02*
D03*
X830Y940D02*
D03*
X1050Y1080D02*
D03*
X370Y1670D02*
D03*
X1630Y1560D02*
D03*
X2240Y730D02*
D03*
X2420D02*
D03*
X2620D02*
D03*
X2530Y330D02*
D03*
X3430Y910D02*
D03*
X1540Y130D02*
D03*
X2260Y320D02*
D03*
D20*
X460Y1670D02*
X1050Y1080D01*
X370Y1670D02*
X460D01*
X820Y940D02*
X830D01*
X820D02*
X950Y810D01*
D21*
X2560Y1800D02*
Y2180D01*
X1920Y1160D02*
X2560Y1800D01*
X900Y1820D02*
Y2430D01*
Y1820D02*
X1230Y1490D01*
X1850Y1160D02*
X1920D01*
X1900Y720D02*
Y1140D01*
X1920Y1160D01*
X1780Y460D02*
X1900Y580D01*
Y720D02*
X2020D01*
X1900Y580D02*
Y720D01*
D23*
X330Y210D02*
D03*
Y770D02*
D03*
D24*
X1646Y2190D02*
D03*
X1056D02*
D03*
X476D02*
D03*
D25*
X1900D02*
D03*
X1310D02*
D03*
X730D02*
D03*
X2930Y914D02*
D03*
Y660D02*
D03*
X1420Y880D02*
D03*
D26*
X3280Y2300D02*
D03*
Y1650D02*
D03*
X2930Y406D02*
D03*
M02*
