G04 Layer_Color=8388736*
%FSLAX42Y42*%
%MOMM*%
G71*
G01*
G75*
G04:AMPARAMS|DCode=31|XSize=1.2mm|YSize=1.1mm|CornerRadius=0.21mm|HoleSize=0mm|Usage=FLASHONLY|Rotation=0.000|XOffset=0mm|YOffset=0mm|HoleType=Round|Shape=RoundedRectangle|*
%AMROUNDEDRECTD31*
21,1,1.20,0.68,0,0,0.0*
21,1,0.78,1.10,0,0,0.0*
1,1,0.43,0.39,-0.34*
1,1,0.43,-0.39,-0.34*
1,1,0.43,-0.39,0.34*
1,1,0.43,0.39,0.34*
%
%ADD31ROUNDEDRECTD31*%
G04:AMPARAMS|DCode=32|XSize=1mm|YSize=1mm|CornerRadius=0.2mm|HoleSize=0mm|Usage=FLASHONLY|Rotation=270.000|XOffset=0mm|YOffset=0mm|HoleType=Round|Shape=RoundedRectangle|*
%AMROUNDEDRECTD32*
21,1,1.00,0.60,0,0,270.0*
21,1,0.60,1.00,0,0,270.0*
1,1,0.40,-0.30,-0.30*
1,1,0.40,-0.30,0.30*
1,1,0.40,0.30,0.30*
1,1,0.40,0.30,-0.30*
%
%ADD32ROUNDEDRECTD32*%
G04:AMPARAMS|DCode=33|XSize=2.2mm|YSize=5.2mm|CornerRadius=0.35mm|HoleSize=0mm|Usage=FLASHONLY|Rotation=270.000|XOffset=0mm|YOffset=0mm|HoleType=Round|Shape=RoundedRectangle|*
%AMROUNDEDRECTD33*
21,1,2.20,4.50,0,0,270.0*
21,1,1.50,5.20,0,0,270.0*
1,1,0.70,-2.25,-0.75*
1,1,0.70,-2.25,0.75*
1,1,0.70,2.25,0.75*
1,1,0.70,2.25,-0.75*
%
%ADD33ROUNDEDRECTD33*%
%ADD34R,1.10X0.80*%
G04:AMPARAMS|DCode=35|XSize=1.2mm|YSize=1.1mm|CornerRadius=0.21mm|HoleSize=0mm|Usage=FLASHONLY|Rotation=90.000|XOffset=0mm|YOffset=0mm|HoleType=Round|Shape=RoundedRectangle|*
%AMROUNDEDRECTD35*
21,1,1.20,0.68,0,0,90.0*
21,1,0.78,1.10,0,0,90.0*
1,1,0.43,0.34,0.39*
1,1,0.43,0.34,-0.39*
1,1,0.43,-0.34,-0.39*
1,1,0.43,-0.34,0.39*
%
%ADD35ROUNDEDRECTD35*%
%ADD36R,1.50X1.30*%
%ADD37C,1.20*%
%ADD38R,3.55X3.55*%
%ADD39R,1.20X0.50*%
%ADD40R,0.50X1.20*%
G04:AMPARAMS|DCode=41|XSize=2.6mm|YSize=5.2mm|CornerRadius=0.4mm|HoleSize=0mm|Usage=FLASHONLY|Rotation=270.000|XOffset=0mm|YOffset=0mm|HoleType=Round|Shape=RoundedRectangle|*
%AMROUNDEDRECTD41*
21,1,2.60,4.40,0,0,270.0*
21,1,1.80,5.20,0,0,270.0*
1,1,0.80,-2.20,-0.90*
1,1,0.80,-2.20,0.90*
1,1,0.80,2.20,0.90*
1,1,0.80,2.20,-0.90*
%
%ADD41ROUNDEDRECTD41*%
%ADD42R,1.70X1.70*%
%ADD43C,1.70*%
%ADD44R,1.70X1.70*%
G36*
X1210Y2000D02*
X1210Y1890D01*
X810Y1890D01*
X810Y2000D01*
X1210Y2000D01*
D02*
G37*
G36*
X2730Y2000D02*
Y1995D01*
X2735D01*
X2735Y1650D01*
X2625Y1650D01*
X2625Y1890D01*
X1570Y1890D01*
Y2000D01*
X2730Y2000D01*
D02*
G37*
G36*
X760Y1650D02*
X760Y1010D01*
X645Y1010D01*
X645Y1650D01*
X760Y1650D01*
D02*
G37*
G36*
X2730Y1512D02*
X2730Y710D01*
X2620Y710D01*
X2620Y1512D01*
X2730Y1512D01*
D02*
G37*
G36*
X760Y860D02*
X760Y570D01*
X640Y570D01*
X640Y860D01*
X760Y860D01*
D02*
G37*
G36*
X760Y410D02*
X760Y140D01*
X2610Y140D01*
X2610Y355D01*
X2710Y355D01*
X2710Y50D01*
X2614Y50D01*
X640Y50D01*
Y140D01*
X640D01*
X640Y410D01*
X760Y410D01*
D02*
G37*
D31*
X2190Y2280D02*
D03*
Y2110D02*
D03*
X3030Y1935D02*
D03*
Y2105D02*
D03*
X2560Y2380D02*
D03*
Y2210D02*
D03*
X875Y1250D02*
D03*
Y1080D02*
D03*
X1015Y1250D02*
D03*
Y1080D02*
D03*
X1925Y1370D02*
D03*
Y1200D02*
D03*
X1785Y1370D02*
D03*
Y1200D02*
D03*
X2505Y1725D02*
D03*
Y1555D02*
D03*
X2235Y1130D02*
D03*
Y960D02*
D03*
X940Y495D02*
D03*
Y665D02*
D03*
X1320Y1435D02*
D03*
X1320Y1605D02*
D03*
X1170Y1575D02*
D03*
X1170Y1745D02*
D03*
X930Y200D02*
D03*
Y370D02*
D03*
X1070Y200D02*
D03*
Y370D02*
D03*
D32*
X2350Y2145D02*
D03*
Y2315D02*
D03*
D33*
X330Y490D02*
D03*
D34*
X2710Y2395D02*
D03*
Y2205D02*
D03*
X2990Y2300D02*
D03*
D35*
X2100Y830D02*
D03*
X1930D02*
D03*
X2065Y1280D02*
D03*
X2235D02*
D03*
X2085Y1020D02*
D03*
X1915D02*
D03*
X1935Y1530D02*
D03*
X1765D02*
D03*
X1330Y440D02*
D03*
X1500D02*
D03*
X190Y1050D02*
D03*
X360D02*
D03*
X365Y1360D02*
D03*
X195D02*
D03*
X1457Y280D02*
D03*
X1287D02*
D03*
X1590Y280D02*
D03*
X1760D02*
D03*
X3320Y980D02*
D03*
X3150D02*
D03*
X3320Y840D02*
D03*
X3150D02*
D03*
Y400D02*
D03*
X3320D02*
D03*
D36*
X2335Y1550D02*
D03*
X2105Y1540D02*
D03*
Y1710D02*
D03*
X2335D02*
D03*
D37*
X1650Y510D02*
D03*
X900Y2430D02*
D03*
X150Y210D02*
D03*
X490Y200D02*
D03*
X170Y770D02*
D03*
X490Y760D02*
D03*
X2560Y2180D02*
D03*
Y2440D02*
D03*
X1270Y1690D02*
D03*
X1850Y1390D02*
D03*
Y1160D02*
D03*
X1780Y460D02*
D03*
X2020Y720D02*
D03*
X1525Y990D02*
D03*
Y770D02*
D03*
X1315D02*
D03*
Y990D02*
D03*
X945Y1310D02*
D03*
X2020Y1710D02*
D03*
X2075Y1090D02*
D03*
X950Y810D02*
D03*
X1220Y280D02*
D03*
X1230Y1490D02*
D03*
X830Y940D02*
D03*
X1050Y1080D02*
D03*
X370Y1670D02*
D03*
X1630Y1560D02*
D03*
X2240Y730D02*
D03*
X2420D02*
D03*
X2620D02*
D03*
X2530Y330D02*
D03*
X3430Y910D02*
D03*
X1540Y130D02*
D03*
X2260Y320D02*
D03*
D38*
X1420Y880D02*
D03*
D39*
X1185Y730D02*
D03*
Y780D02*
D03*
Y830D02*
D03*
Y880D02*
D03*
Y930D02*
D03*
Y980D02*
D03*
Y1030D02*
D03*
X1655D02*
D03*
Y980D02*
D03*
Y930D02*
D03*
Y880D02*
D03*
Y830D02*
D03*
Y780D02*
D03*
Y730D02*
D03*
D40*
X1270Y1115D02*
D03*
X1320D02*
D03*
X1370D02*
D03*
X1420D02*
D03*
X1470D02*
D03*
X1520D02*
D03*
X1570D02*
D03*
Y645D02*
D03*
X1520D02*
D03*
X1470D02*
D03*
X1420D02*
D03*
X1370D02*
D03*
X1320D02*
D03*
X1270D02*
D03*
D41*
X330Y210D02*
D03*
Y770D02*
D03*
D42*
X1646Y2190D02*
D03*
X1056D02*
D03*
X476D02*
D03*
D43*
X1900D02*
D03*
X1310D02*
D03*
X730D02*
D03*
X2930Y914D02*
D03*
Y660D02*
D03*
X1420Y880D02*
D03*
D44*
X3280Y2300D02*
D03*
Y1650D02*
D03*
X2930Y406D02*
D03*
M02*
